<?xml version="1.0" encoding="utf-8"?>
<!-- Generator: Adobe Illustrator 22.0.1, SVG Export Plug-In . SVG Version: 6.00 Build 0)  -->
<svg version="1.1" id="Layer_1" xmlns="http://www.w3.org/2000/svg" xmlns:xlink="http://www.w3.org/1999/xlink" x="0px" y="0px"
	 viewBox="0 0 250 250" style="enable-background:new 0 0 250 250;" xml:space="preserve">
<style type="text/css">
	.st0{fill:#808080;}
	.st1{fill:#FFFFFF;}
</style>
<g>
	<path d="M200,0H12C5.4,0,0,5.4,0,12v226c0,6.6,5.4,12,12,12h226c6.6,0,12-5.4,12-12V50L200,0z"/>
	<path class="st0" d="M200,38c0,6.6,5.4,12,12,12h38L200,0V38z"/>
</g>
<g>
	<path class="st1" d="M125,81c1.9,0,3.5-0.9,4.6-2.2c0,0,0,0,0,0c0.1-0.1,0.2-0.3,0.3-0.4c0,0,0,0,0,0c0,0,0,0,0,0
		c0.6-1,1-2.1,1-3.3c0-0.2,0-0.4,0-0.6c-0.2-1.7-1-3.1-2.3-4.1c0,0,0,0,0,0c-1-0.8-2.3-1.3-3.7-1.3H69v112h56c2.1,0,3.9-1.1,5-2.7
		c0,0,0,0,0,0c0,0,0,0,0,0c0.6-1,1-2.1,1-3.3c0-1.2-0.4-2.4-1-3.3c0,0,0,0,0,0c0,0,0,0,0,0c-0.1-0.1-0.2-0.2-0.3-0.4
		c0,0-0.1-0.1-0.1-0.1c-0.2-0.3-0.5-0.6-0.8-0.8c0,0-0.1-0.1-0.2-0.1c-0.1-0.1-0.2-0.2-0.3-0.2c0,0,0,0,0,0c0,0,0,0,0,0
		c-0.8-0.6-1.8-0.9-2.9-1c0,0,0,0,0,0c-0.1,0-0.3,0-0.4,0H81V81H125z"/>
	<circle class="st1" cx="150" cy="175" r="6"/>
	<path class="st1" d="M178.3,170c-0.3-0.2-0.7-0.4-1-0.5c-0.4-0.2-0.7-0.3-1.1-0.3c-0.8-0.2-1.6-0.2-2.3,0c-0.4,0.1-0.8,0.2-1.1,0.3
		c-0.4,0.1-0.7,0.3-1,0.5c-0.3,0.2-0.6,0.5-0.9,0.8c-1.1,1.1-1.8,2.7-1.8,4.2c0,0.4,0,0.8,0.1,1.2c0.1,0.4,0.2,0.8,0.3,1.1
		c0.1,0.4,0.3,0.7,0.5,1c0.2,0.3,0.5,0.6,0.8,0.9c1.1,1.1,2.7,1.8,4.2,1.8c0.4,0,0.8,0,1.2-0.1c0.4-0.1,0.8-0.2,1.1-0.3
		c0.4-0.2,0.7-0.3,1-0.6c0.3-0.2,0.6-0.5,0.9-0.8c0.3-0.3,0.5-0.6,0.8-0.9c0.2-0.3,0.4-0.7,0.5-1c0.1-0.4,0.3-0.7,0.3-1.1
		s0.1-0.8,0.1-1.2c0-1.6-0.6-3.1-1.8-4.2C179,170.5,178.7,170.2,178.3,170z"/>
	<circle class="st1" cx="175" cy="125" r="6"/>
	<circle class="st1" cx="175" cy="100" r="6"/>
	<circle class="st1" cx="175" cy="150" r="6"/>
	<path class="st1" d="M169.5,77.3c0.1,0.4,0.3,0.7,0.5,1c0.2,0.3,0.5,0.6,0.8,0.9c0.3,0.3,0.6,0.5,0.9,0.8c0.3,0.2,0.7,0.4,1,0.6
		c0.4,0.1,0.7,0.3,1.1,0.3c0.4,0.1,0.8,0.1,1.2,0.1c0.4,0,0.8,0,1.2-0.1c0.4-0.1,0.8-0.2,1.1-0.3c0.4-0.2,0.7-0.3,1-0.6
		c0.3-0.2,0.6-0.5,0.9-0.8c0.3-0.3,0.5-0.6,0.8-0.9c0.2-0.3,0.4-0.7,0.5-1c0.1-0.4,0.3-0.7,0.3-1.1c0.1-0.4,0.1-0.8,0.1-1.2
		c0-1.6-0.6-3.1-1.8-4.2c-1.4-1.4-3.5-2-5.4-1.6c-0.4,0.1-0.8,0.2-1.1,0.3c-0.4,0.1-0.7,0.3-1,0.5c-0.3,0.2-0.6,0.5-0.9,0.8
		c-0.3,0.3-0.5,0.6-0.8,0.9s-0.4,0.7-0.5,1c-0.2,0.4-0.3,0.7-0.3,1.1c-0.1,0.4-0.1,0.8-0.1,1.2c0,0.4,0,0.8,0.1,1.2
		C169.2,76.5,169.3,76.9,169.5,77.3z"/>
	<circle class="st1" cx="150" cy="75" r="6"/>
</g>
</svg>
